# xmcd CD database file
#
# Track frame offsets:
#	150
#	16448
#	32660
#	44323
#	58325
#	73330
#	89683
#	104503
#	116300
#	129073
#	146913
#	165368
#
# Disc length: 2401 seconds
#
# Revision: 3
# Processed by: cddbd v1.5.1PL0 Copyright (c) Steve Scherf et al.
# Submitted via: Feurio! 1.68 - http://www.feurio.com
#
DISCID=a8095f0c
DTITLE=Various Artist - The Soulful Sound Of Stax   Volume 2
DYEAR=1900
DGENRE=blues
TTITLE0=The Soul Children - I'll Be The Other Woman
TTITLE1=The Dramatics - In The Rain
TTITLE2=Rufus Thomas - Walkin' The Dog
TTITLE3=Eddie Floyd  - Knock On Wood
TTITLE4=Isaac Hayes - The Theme From Shaft
TTITLE5=Mel and Tim - Starting All Over Again
TTITLE6=Rufus Thomas - The Funky Chicken
TTITLE7=Sam and Dave  - Hold On, I'm Comin'
TTITLE8=Johnnie Taylor  - Who's Makin' Love
TTITLE9=Shirley Brown - Woman To Woman
TTITLE10=Albert King  - I'll Play Tha Blues For You
TTITLE11=Sam and Dave - When Somethin' Is Wrong
EXTD=
EXTT0=The Soul Children
EXTT1=The Dramatics
EXTT2=Rufus Thomas
EXTT3=Eddie Floyd
EXTT4=Isaac Hayes
EXTT5=Mel and Tim
EXTT6=Rufus Thomas
EXTT7=Sam and Dave
EXTT8=Johnnie Taylor
EXTT9=Shirley Brown
EXTT10=Albert King
EXTT11=Sam and Dave
PLAYORDER=
